<svg xmlns="http://www.w3.org/2000/svg" viewBox="0 0 132 132"><title>cog</title><path d="M92.61,52.15A30.27,30.27,0,0,0,79.86,39.4a28.84,28.84,0,0,0-4.82-2,30,30,0,0,0-18.05,0,29.34,29.34,0,0,0-4.84,2A30.27,30.27,0,0,0,39.4,52.14a28.84,28.84,0,0,0-2,4.82,29.89,29.89,0,0,0,0,18.05,29.34,29.34,0,0,0,2,4.84A30.27,30.27,0,0,0,52.14,92.6a28.84,28.84,0,0,0,4.82,2,29.89,29.89,0,0,0,18.05,0,29.34,29.34,0,0,0,4.84-2A30.27,30.27,0,0,0,92.6,79.86a28.5,28.5,0,0,0,2-4.84,30,30,0,0,0-2-22.87ZM87,72.6v0a20.41,20.41,0,0,1-1.46,3.52,22.29,22.29,0,0,1-9.37,9.37A20.89,20.89,0,0,1,72.6,87a22,22,0,0,1-13.23,0,20.41,20.41,0,0,1-3.52-1.46,22.29,22.29,0,0,1-9.37-9.37A20.89,20.89,0,0,1,45,72.6a21.86,21.86,0,0,1,0-13.23,20.41,20.41,0,0,1,1.46-3.52,22.29,22.29,0,0,1,9.37-9.37A20.89,20.89,0,0,1,59.4,45a21.86,21.86,0,0,1,13.23,0,20.41,20.41,0,0,1,3.52,1.46,22.29,22.29,0,0,1,9.37,9.37A20.89,20.89,0,0,1,87,59.4a21.86,21.86,0,0,1,0,13.2Z"/><path d="M126,50h-8.42a53,53,0,0,0-3.79-9.16l5.95-6a6,6,0,0,0,0-8.49L105.6,12.26a6,6,0,0,0-8.49,0l-6,6A53,53,0,0,0,82,14.42V6a6,6,0,0,0-6-6H56a6,6,0,0,0-6,6v8.42a53,53,0,0,0-9.16,3.79l-6-6a6,6,0,0,0-8.49,0L12.26,26.4a6,6,0,0,0,0,8.49l6,6A53,53,0,0,0,14.42,50H6a6,6,0,0,0-6,6V76a6,6,0,0,0,6,6h8.42a53,53,0,0,0,3.79,9.16l-6,6a6,6,0,0,0,0,8.49L26.4,119.74a6,6,0,0,0,8.49,0l6-5.95A53,53,0,0,0,50,117.58V126a6,6,0,0,0,6,6H76a6,6,0,0,0,6-6v-8.42a53,53,0,0,0,9.16-3.79l6,5.95a6,6,0,0,0,8.49,0l14.14-14.14a6,6,0,0,0,0-8.49l-5.95-6A53,53,0,0,0,117.58,82H126a6,6,0,0,0,6-6V56A6,6,0,0,0,126,50Zm-2,24H111.4l-.74,3a45.89,45.89,0,0,1-5.27,12.72l-1.62,2.68,8.9,8.9-11.32,11.32-8.9-8.9-2.68,1.62a45.89,45.89,0,0,1-12.72,5.27l-3,.74V124H58V111.4l-3-.74a45.89,45.89,0,0,1-12.72-5.27l-2.68-1.62-8.9,8.9L19.33,101.35l8.9-8.9-1.62-2.68a45.89,45.89,0,0,1-5.27-12.72l-.74-3H8V58H20.6l.74-3a45.89,45.89,0,0,1,5.27-12.72l1.62-2.68-8.9-8.9L30.65,19.33l8.9,8.9,2.68-1.62A45.89,45.89,0,0,1,55,21.34l3-.74V8H74V20.6l3,.74a45.89,45.89,0,0,1,12.72,5.27l2.68,1.62,8.9-8.9,11.32,11.32-8.9,8.9,1.62,2.68A45.89,45.89,0,0,1,110.66,55l.74,3H124Z"/></svg>