<svg xmlns="http://www.w3.org/2000/svg" viewBox="0 0 97.42 100"><title>sliders</title><path d="M3.88,15.5H16.69a11.62,11.62,0,0,0,21.92,0H93.54a3.88,3.88,0,1,0,0-7.75H38.61a11.62,11.62,0,0,0-21.92,0H3.88a3.88,3.88,0,1,0,0,7.75Zm19.9-3.87a3.88,3.88,0,1,1,3.87,3.87A3.88,3.88,0,0,1,23.78,11.63ZM93.54,45.74H81a11.62,11.62,0,0,0-22.18,0H3.88a3.88,3.88,0,1,0,0,7.75H59.09a11.62,11.62,0,0,0,21.62,0H93.54a3.88,3.88,0,1,0,0-7.75ZM73.78,49.22a3.88,3.88,0,1,1-5.57-3.48,3.86,3.86,0,0,1,3.38,0A3.87,3.87,0,0,1,73.78,49.22Zm19.76,34.5H60a11.61,11.61,0,0,0-21.3,0H3.88a3.88,3.88,0,1,0,0,7.75H38.15a11.63,11.63,0,0,0,22.42,0h33a3.88,3.88,0,1,0,0-7.75ZM49.36,92.25a3.89,3.89,0,0,1-3.88-3.88,3.88,3.88,0,1,1,6.2,3.1A3.81,3.81,0,0,1,49.36,92.25Z"/></svg>