<svg xmlns="http://www.w3.org/2000/svg" viewBox="0 0 79.95 108"><title>trash</title><path d="M76,10.37H59.44L54.38,1.94A4,4,0,0,0,51,0H28.39a4,4,0,0,0-3.46,2l-4.84,8.37H4a4,4,0,0,0,0,8H6.1V99a9,9,0,0,0,9,9H64.87a9,9,0,0,0,9-9V18.37H76a4,4,0,0,0,0-8ZM30.7,8h18l1.42,2.37H29.33ZM65.85,99a1,1,0,0,1-1,1H15.08a1,1,0,0,1-1-1V18.37H65.85Z"/><path d="M24.73,94.58a4,4,0,0,0,4-4V27.78a4,4,0,0,0-8,0v62.8A4,4,0,0,0,24.73,94.58Z"/><path d="M40,94.58a4,4,0,0,0,4-4V27.78a4,4,0,1,0-8,0v62.8A4,4,0,0,0,40,94.58Z"/><path d="M55.22,94.58a4,4,0,0,0,4-4V27.78a4,4,0,0,0-8,0v62.8A4,4,0,0,0,55.22,94.58Z"/></svg>